<svg width="87" height="99" viewBox="0 0 87 99" fill="none" xmlns="http://www.w3.org/2000/svg">
  <path d="M87 29.3796C87 34.2395 86.2769 38.634 84.8308 42.5633C83.4363 46.4925 81.3704 49.9306 78.6331 52.8776C75.9475 55.8245 72.6162 58.2544 68.6394 60.1674C64.7142 62.0286 60.2208 63.3211 55.1594 64.0449V78.6245H35.6367V44.8898H44.9332C51.0276 44.8898 55.8566 43.5197 59.4203 40.7796C63.0356 37.9878 64.8433 33.9034 64.8433 28.5265C64.8433 26.2517 64.3784 24.1061 63.4488 22.0898C62.5191 20.0735 61.2021 18.2898 59.4978 16.7388C57.7934 15.1878 55.7533 13.9728 53.3776 13.0939C51.0018 12.1633 48.3419 11.698 45.398 11.698C41.7311 11.698 38.5548 12.1891 35.8691 13.1714C33.1834 14.102 30.8851 15.4463 28.9742 17.2041C27.1149 18.9102 25.6171 21.0041 24.4809 23.4857C23.3446 25.9156 22.5183 28.6558 22.0018 31.7061L0 28.449C1.18789 21.883 3.20214 16.2993 6.04274 11.698C8.935 7.04489 12.3954 3.27074 16.4239 0.375504C20.4524 -2.51973 24.9199 -4.63946 29.8264 -5.98368C34.7329 -7.32789 39.7685 -8 44.9332 -8C51.0276 -8 56.6313 -7.17279 61.7444 -5.51837C66.9092 -3.91565 71.3508 -1.51157 75.0695 1.69388C78.8397 4.84762 81.7578 8.75102 83.8237 13.4041C85.9412 18.0571 87 23.3823 87 29.3796ZM35.6367 106V87.3878H55.1594V106H35.6367Z" fill="#ffffff" />
</svg>
